<svg width="15" height="20" viewBox="0 0 15 20" fill="none" xmlns="http://www.w3.org/2000/svg">
<rect width="15" height="20" fill="#4D4D4D"/>
<path d="M6.06511 13.5814C6.47636 14.3533 6.99886 14.739 7.63323 14.739C8.28261 14.739 8.77823 14.4081 9.11948 13.7457C9.30823 13.3895 9.46449 12.8552 9.58886 12.1428H11.471C11.3085 13.649 10.8935 14.8738 10.2267 15.8176C9.55886 16.7609 8.70449 17.2328 7.66136 17.2328C6.37105 17.2328 5.35667 16.5957 4.61886 15.3205C3.88042 14.04 3.51105 12.2833 3.51105 10.0524C3.51105 7.63998 3.93105 5.78046 4.77073 4.47475C5.50136 3.33713 6.43042 2.76855 7.55823 2.76855C9.06761 2.76855 10.171 3.53094 10.8689 5.05617C11.2545 5.91236 11.4614 6.77141 11.4895 7.63379H9.5948C9.47386 6.97094 9.31949 6.47189 9.13105 6.13427C8.79355 5.53427 8.29292 5.23379 7.63011 5.23379C6.95511 5.23379 6.42292 5.6576 6.03292 6.50427C5.64355 7.35094 5.44886 8.54951 5.44886 10.099C5.44886 11.6486 5.65448 12.809 6.06511 13.5814Z" fill="white"/>
</svg>
