<svg viewBox="0 0 23 14" fill="none" xmlns="http://www.w3.org/2000/svg">
<path d="M1.725 0C0.773806 0 0 0.724635 0 1.61538V12.3846C0 13.2754 0.773806 14 1.725 14H21.275C22.2262 14 23 13.2754 23 12.3846V1.61538C23 0.724635 22.2262 0 21.275 0H1.725ZM10.925 9.63813C9.61429 9.38801 8.625 8.30018 8.625 7C8.625 5.69982 9.61429 4.61199 10.925 4.36187V9.63813ZM12.075 4.36187C13.3857 4.61199 14.375 5.69982 14.375 7C14.375 8.30018 13.3857 9.38801 12.075 9.63813V4.36187ZM1.15 4.30769H3.45V9.69231H1.15V4.30769ZM1.15 12.3846V10.7692H4.025C4.34254 10.7692 4.6 10.5281 4.6 10.2308V3.76923C4.6 3.47187 4.34254 3.23077 4.025 3.23077H1.15V1.61538C1.15 1.31849 1.40796 1.07692 1.725 1.07692H10.925V3.26987C8.97712 3.53204 7.475 5.10455 7.475 7C7.475 8.89545 8.97712 10.468 10.925 10.7301V12.9231H1.725C1.40796 12.9231 1.15 12.6815 1.15 12.3846ZM21.85 9.69231H19.55V4.30769H21.85V9.69231ZM21.85 1.61538V3.23077H18.975C18.6575 3.23077 18.4 3.47187 18.4 3.76923V10.2308C18.4 10.5281 18.6575 10.7692 18.975 10.7692H21.85V12.3846C21.85 12.6815 21.592 12.9231 21.275 12.9231H12.075V10.7301C14.0229 10.468 15.525 8.89545 15.525 7C15.525 5.10455 14.0229 3.53197 12.075 3.26987V1.07692H21.275C21.592 1.07692 21.85 1.31849 21.85 1.61538Z" fill="#B7B7B7"/>
</svg>
