<svg width="50" height="30" viewBox="0 0 50 30" fill="none" xmlns="http://www.w3.org/2000/svg">
<g clip-path="url(#clip0_123_2)">
<rect width="50" height="30" fill="#F1F1F1"/>
<g clip-path="url(#clip1_123_2)">
<path d="M24.9998 27.9999C32.1795 27.9999 37.9997 22.1797 37.9997 15.0001C37.9997 7.82047 32.1795 2.00024 24.9998 2.00024C17.8202 2.00024 12 7.82047 12 15.0001C12 22.1797 17.8202 27.9999 24.9998 27.9999Z" fill="#86B6EE"/>
<path d="M13.8492 16.7405C14.1071 16.7523 14.3309 16.4346 14.5898 15.6351C14.7551 15.1347 15.2311 14.8036 15.7577 14.8226C15.7577 14.8226 16.2269 15.432 16.3419 17.8435C16.4638 20.428 17.3754 19.5091 17.6066 20.5499C18.0185 22.4049 18.7644 22.6965 19.466 23.3392C20.1676 23.982 20.8472 22.4654 21.3254 20.5499C21.8035 18.6345 22.3491 19.4006 23.1848 18.6905C24.0204 17.9804 23.8527 17.319 25.0442 16.8311C26.2357 16.3432 25.9493 16.8656 25.9741 15.9012C25.9904 15.2699 26.0915 14.6479 26.2873 14.5053C26.8272 14.1117 26.7439 14.0227 26.904 13.1115C27.0641 12.2003 24.7042 11.2188 25.0446 10.3222C25.2762 9.72402 25.2762 9.06092 25.0446 8.46277C25.0446 8.46277 23.9884 7.95292 23.1852 10.3222C22.7456 11.6149 22.4072 9.74367 22.2553 9.39227C22.1034 9.04086 22.2553 7.53286 22.2553 7.53286C20.9468 7.05674 21.5976 8.00899 20.3959 7.53286C19.1942 7.05674 18.8221 7.08355 19.466 5.67346C19.466 5.67346 19.8158 4.19511 18.8566 3.54272C14.6863 5.77913 12.0613 10.1058 12.004 14.8376C12.5257 15.6315 13.3317 16.7174 13.8492 16.7405Z" fill="#666666"/>
<path d="M33.7201 5.35938C33.8696 5.89522 34.1085 6.74063 34.3429 7.53281C34.7243 8.81859 34.366 9.68594 34.3429 10.3221C34.3197 10.9583 35.3004 13.1833 35.2728 13.1114C35.6098 13.344 35.8592 13.6826 35.9813 14.0734C36.0292 14.8624 37.146 15.1122 37.9776 15.7391C37.9914 15.4953 37.9999 15.2475 37.9999 14.9993C38.0037 11.3248 36.4482 7.8211 33.7201 5.35938Z" fill="#666666"/>
<path d="M26.9049 5.67293C28.6579 5.96584 29.6211 6.68612 30.5282 6.77671C31.3326 6.85801 30.5485 5.63068 29.8465 4.71621C29.4596 4.14477 29.3017 3.44871 29.4041 2.76621C28.1879 2.32873 26.9131 2.07579 25.6219 2.01587C26.0737 2.57121 26.7265 3.21146 26.8155 3.51249C26.9447 3.95003 25.6597 5.46493 26.9049 5.67293Z" fill="#666666"/>
<path d="M37.3317 19.1134C36.841 18.517 35.7226 17.2727 35.2729 17.7606C34.6667 18.4175 35.2322 20.543 34.343 20.5499C33.4537 20.5568 32.135 21.4436 31.4423 22.8541C30.7696 24.2232 28.4856 23.6886 28.6485 27.4773C32.7367 26.2773 35.9795 23.1538 37.3317 19.1134Z" fill="#666666"/>
</g>
<line y1="0.5" x2="50" y2="0.5" stroke="#CFCFCF"/>
<line y1="29.5" x2="50" y2="29.5" stroke="#CFCFCF"/>
<line x1="0.5" y1="1" x2="0.500001" y2="29" stroke="#CFCFCF"/>
<line x1="49.5" y1="1" x2="49.5" y2="29" stroke="#CFCFCF"/>
</g>
<defs>
<clipPath id="clip0_123_2">
<rect width="50" height="30" fill="white"/>
</clipPath>
<clipPath id="clip1_123_2">
<rect width="26" height="26" fill="white" transform="translate(12 2)"/>
</clipPath>
</defs>
</svg>
