<svg xmlns="http://www.w3.org/2000/svg" xmlns:xlink="http://www.w3.org/1999/xlink" style="position:absolute;left: -100%;" height="0" width="0"><defs><clipPath id="a"><path d="M0 0h20v20H0z"/></clipPath><clipPath id="a"><path d="M0 0h20v20H0z"/></clipPath><clipPath id="a"><path d="M0 0h20v20H0z"/></clipPath><clipPath id="a"><path d="M0 0h20v20H0z"/></clipPath><clipPath id="a"><path d="M0 0h20v20H0z"/></clipPath><clipPath id="clip0"><path fill="#fff" transform="rotate(90 8.5 8.5)" d="M0 0h20v17H0z"/></clipPath><clipPath id="clip0"><path fill="#fff" transform="rotate(90 8.5 8.5)" d="M0 0h20v17H0z"/></clipPath><clipPath id="clip0"><path fill="#fff" transform="rotate(90 8.5 8.5)" d="M0 0h20v17H0z"/></clipPath><clipPath id="clip0_123_2"><path fill="#fff" d="M0 0h50v30H0z"/></clipPath><clipPath id="clip1_123_2"><path fill="#fff" transform="translate(12 2)" d="M0 0h26v26H0z"/></clipPath></defs><symbol id="icon-arrow-bottom" viewBox="0 0 32 32"><path d="M6 22l10 8 10-8m-10 8V2"/></symbol><symbol id="icon-arrow-left" viewBox="0 0 32 32"><path d="M10 6L2 16l8 10M2 16h28"/></symbol><symbol id="icon-arrow-o-down" viewBox="0 0 10 16"><path d="M7 7V3H3v4H0l5 6 5-6z" fill-rule="evenodd"/></symbol><symbol id="icon-arrow-o-up" viewBox="0 0 10 16"><path d="M5 3L0 9h3v4h4V9h3z" fill-rule="evenodd"/></symbol><symbol id="icon-arrow-right" viewBox="0 0 32 32"><path d="M22 6l8 10-8 10m8-10H2"/></symbol><symbol id="icon-arrow-top" viewBox="0 0 32 32"><path d="M6 10l10-8 10 8M16 2v28"/></symbol><symbol id="icon-ball" viewBox="0 0 20 20"><path d="M0 9.984c0 5.519 4.481 10 10 10s10-4.481 10-10c0-5.52-4.481-10-10-10s-10 4.48-10 10zm7.53-.219l-2.318 2.106 1.045 3.951 3.165 1.097 3.102-2.884-1.189-2.935L7.53 9.765zM3.199 4.091a8.987 8.987 0 016.184-3.087l.145.771-3.421 3.601-2.167.122-.741-1.407zm4.466 4.661L6.95 5.939l3.189-3.355c.69.059 1.515.275 2.353.646.381.169.737.357 1.06.557l.336 4.472-2.181 1.911-4.042-1.418zM2.529 4.966A8.949 8.949 0 001.001 9.86l1.128-.335.883-3.643-.483-.916zM1.045 10.89a8.99 8.99 0 003.473 6.229l.768-1.06-1.081-4.083-1.694-1.521-1.466.435zm9.161 8.091a8.975 8.975 0 006.404-2.893l-.845-1.485-2.387.004-3.34 3.104.168 1.27zm8.701-10.296a8.985 8.985 0 00-2.935-5.432l-1.407.668.315 4.195 2.135 1.662 1.892-1.093zm.091 1.103l.002.196a8.96 8.96 0 01-1.71 5.276l-.712-1.25.997-3.401 1.423-.821z" fill-rule="evenodd"/></symbol><symbol id="icon-ball_canceled" viewBox="0 0 20 20"><g clip-path="url(#a)"><path d="M0 9.984c0 5.519 4.481 10 10 10s10-4.481 10-10c0-5.52-4.481-10-10-10s-10 4.48-10 10zm7.53-.219l-2.318 2.106 1.045 3.951 3.165 1.097 3.102-2.884-1.189-2.935L7.53 9.765zM3.199 4.091a8.987 8.987 0 016.184-3.087l.145.771-3.421 3.601-2.167.122-.741-1.407zm4.466 4.661L6.95 5.939l3.189-3.355c.69.059 1.514.275 2.353.646.381.169.737.357 1.06.557l.336 4.472-2.181 1.911-4.042-1.418zM2.529 4.966A8.949 8.949 0 001.001 9.86l1.128-.335.883-3.643-.483-.916zM1.045 10.89a8.99 8.99 0 003.473 6.229l.768-1.06-1.081-4.083-1.694-1.521-1.466.435zm9.161 8.091a8.975 8.975 0 006.404-2.893l-.845-1.485-2.387.004-3.34 3.104.168 1.27zm8.701-10.296a8.985 8.985 0 00-2.935-5.432l-1.407.668.315 4.195 2.135 1.662 1.892-1.093zm.091 1.103l.002.196a8.96 8.96 0 01-1.71 5.276l-.712-1.25.997-3.401 1.423-.821z" fill-rule="evenodd" fill="#6C6C6C"/><path d="M17.365 1.963l1.259 1.259c.13.13.13.341 0 .471L2.88 19.437a.333.333 0 01-.471 0L1.15 18.178a.332.332 0 010-.47L16.894 1.963c.13-.13.341-.13.471 0z" fill="#c83131"/><path d="M18.625 18.175l-1.264 1.263a.329.329 0 01-.466 0L1.473 4.016a.329.329 0 010-.466l1.263-1.264a.329.329 0 01.466 0l15.423 15.423a.329.329 0 010 .466z" fill="#c83131"/></g></symbol><symbol id="icon-ball_dual" viewBox="0 0 20 20"><circle cx="10" cy="10" r="10" fill="#CCC"/><circle cx="10" cy="10" r="9" fill="#000"/><path fill-rule="evenodd" clip-rule="evenodd" d="M7.53 9.765l-2.318 2.106 1.045 3.951 3.165 1.097 3.102-2.884-1.189-2.935L7.53 9.765zM3.199 4.091a8.987 8.987 0 016.184-3.087l.145.771-3.421 3.601-2.167.122-.741-1.407zm4.466 4.661L6.95 5.939l3.189-3.355c.69.059 1.515.275 2.353.646.381.169.737.357 1.06.557l.336 4.472-2.181 1.911-4.042-1.418zM2.5 5a8.81 8.81 0 00-1.499 4.86l1.128-.335.883-3.643L2.5 5zm-1.455 5.89a8.99 8.99 0 003.473 6.229l.768-1.06-1.081-4.083-1.694-1.521-1.466.435zm9.161 8.091a8.975 8.975 0 006.404-2.893l-.845-1.485-2.387.004-3.34 3.104.168 1.27zm8.701-10.296a8.986 8.986 0 00-2.935-5.432l-1.407.668.315 4.195 2.135 1.662 1.892-1.093zm.091 1.103l.002.196a8.96 8.96 0 01-1.71 5.276l-.712-1.25.997-3.401 1.423-.821z" fill="#fff"/></symbol><symbol id="icon-ball_dual2" viewBox="0 0 20 20"><circle cx="10" cy="10" r="10" fill="#fff"/><path fill-rule="evenodd" clip-rule="evenodd" d="M1 10c0 4.967 4.033 9 9 9s9-4.033 9-9c0-4.968-4.033-9-9-9s-9 4.032-9 9zm6.777-.197l-2.086 1.895.94 3.556 2.849.987 2.792-2.595-1.07-2.642-3.425-1.201zM3.879 4.696a8.088 8.088 0 015.566-2.778l.13.694-3.079 3.24-1.95.11-.667-1.266zM7.9 8.891L7.255 6.36l2.87-3.019c.621.053 1.364.248 2.118.581.343.153.663.322.954.502l.302 4.024-1.963 1.72L7.9 8.891zM3.276 5.484a8.054 8.054 0 00-1.375 4.404l1.015-.301.795-3.279-.435-.824zm-1.335 5.331a8.092 8.092 0 003.125 5.607l.691-.955-.972-3.674-1.525-1.37-1.32.392zm8.244 7.282a8.078 8.078 0 005.764-2.603l-.76-1.337-2.149.004-3.006 2.793.151 1.143zm7.831-9.266a8.087 8.087 0 00-2.641-4.889l-1.267.601.284 3.776 1.922 1.496 1.702-.984zm.082.993L18.1 10a8.064 8.064 0 01-1.539 4.748l-.64-1.125.896-3.06 1.281-.74z" fill="#000"/></symbol><symbol id="icon-ball_penalty" viewBox="0 0 20 20"><g clip-path="url(#a)"><path d="M0 9.984c0 5.519 4.481 10 10 10s10-4.481 10-10c0-5.52-4.481-10-10-10s-10 4.48-10 10zm7.53-.219l-2.318 2.106 1.045 3.951 3.165 1.097 3.102-2.884-1.189-2.935L7.53 9.765zM3.199 4.091a8.987 8.987 0 016.184-3.087l.145.771-3.421 3.601-2.167.122-.741-1.407zm4.466 4.661L6.95 5.939l3.189-3.355c.69.059 1.514.275 2.353.646.381.169.737.357 1.06.557l.336 4.472-2.181 1.911-4.042-1.418zM2.529 4.966A8.949 8.949 0 001.001 9.86l1.128-.335.883-3.643-.483-.916zM1.045 10.89a8.99 8.99 0 003.473 6.229l.768-1.06-1.081-4.083-1.694-1.521-1.466.435zm9.161 8.091a8.975 8.975 0 006.404-2.893l-.845-1.485-2.387.004-3.34 3.104.168 1.27zm8.701-10.296a8.985 8.985 0 00-2.935-5.432l-1.407.668.315 4.195 2.135 1.662 1.892-1.093zm.091 1.103l.002.196a8.96 8.96 0 01-1.71 5.276l-.712-1.25.997-3.401 1.423-.821z" fill-rule="evenodd"/><path fill="#FFF" d="M0 10.391h8.922v3.707H0z"/><path fill="#FFF" d="M.363 11.919h10.701v8.064H.363z"/><text transform="translate(.754 21.726)" font-family="Franklin Gothic Heavy" font-weight="400" font-size="14" fill="#009688" stroke="#fff" stroke-width=".5">P</text></g></symbol><symbol id="icon-calendar" viewBox="0 0 14 16"><path fill-rule="evenodd" d="M13 2h-1v1.5c0 .28-.22.5-.5.5h-2c-.28 0-.5-.22-.5-.5V2H6v1.5c0 .28-.22.5-.5.5h-2c-.28 0-.5-.22-.5-.5V2H2c-.55 0-1 .45-1 1v11c0 .55.45 1 1 1h11c.55 0 1-.45 1-1V3c0-.55-.45-1-1-1zm0 12H2V5h11v9zM5 3H4V1h1v2zm6 0h-1V1h1v2zM6 7H5V6h1v1zm2 0H7V6h1v1zm2 0H9V6h1v1zm2 0h-1V6h1v1zM4 9H3V8h1v1zm2 0H5V8h1v1zm2 0H7V8h1v1zm2 0H9V8h1v1zm2 0h-1V8h1v1zm-8 2H3v-1h1v1zm2 0H5v-1h1v1zm2 0H7v-1h1v1zm2 0H9v-1h1v1zm2 0h-1v-1h1v1zm-8 2H3v-1h1v1zm2 0H5v-1h1v1zm2 0H7v-1h1v1zm2 0H9v-1h1v1z"/></symbol><symbol id="icon-captain" viewBox="0 0 15 20"><path fill="#4D4D4D" d="M0 0h15v20H0z"/><path d="M6.065 13.581c.411.772.934 1.158 1.568 1.158.65 0 1.145-.33 1.486-.993.19-.357.345-.89.47-1.603h1.882c-.162 1.506-.578 2.73-1.244 3.675-.668.943-1.523 1.415-2.566 1.415-1.29 0-2.304-.637-3.042-1.913-.739-1.28-1.108-3.037-1.108-5.268 0-2.412.42-4.272 1.26-5.577.73-1.138 1.66-1.706 2.787-1.706 1.51 0 2.613.762 3.31 2.287.386.856.593 1.715.621 2.578H9.595c-.121-.663-.276-1.162-.464-1.5-.337-.6-.838-.9-1.5-.9-.676 0-1.208.424-1.598 1.27-.39.847-.584 2.046-.584 3.595 0 1.55.205 2.71.616 3.482z" fill="#fff"/></symbol><symbol id="icon-card_r" viewBox="0 0 20 20"><g clip-path="url(#a)"><path fill="#F44336" d="M4 1.5h12v17H4z"/></g></symbol><symbol id="icon-card_y" viewBox="0 0 20 20"><g clip-path="url(#a)"><path fill="#FFEB3B" d="M4 1.5h12v17H4z"/></g></symbol><symbol id="icon-card_yr" viewBox="0 0 20 20"><g clip-path="url(#a)"><path fill="#FFEB3B" d="M1 3h12v17H1z"/><path fill="#F44336" d="M7 0h12v17H7z"/></g></symbol><symbol id="icon-chevron-down" viewBox="0 0 24 24"><path d="M6 9l6 6 6-6"/></symbol><symbol id="icon-clock-alt" viewBox="0 0 24 24"><circle cx="12" cy="12" r="10"/><path d="M12 6v6l4 2"/></symbol><symbol id="icon-clock" viewBox="0 0 14 16"><path fill-rule="evenodd" d="M8 8h3v2H7c-.55 0-1-.45-1-1V4h2v4zM7 2.3c3.14 0 5.7 2.56 5.7 5.7s-2.56 5.7-5.7 5.7A5.71 5.71 0 011.3 8c0-3.14 2.56-5.7 5.7-5.7zM7 1C3.14 1 0 4.14 0 8s3.14 7 7 7 7-3.14 7-7-3.14-7-7-7z"/></symbol><symbol id="icon-eye" viewBox="0 0 16 16"><path fill-rule="evenodd" d="M8.06 2C3 2 0 8 0 8s3 6 8.06 6C13 14 16 8 16 8s-3-6-7.94-6zM8 12c-2.2 0-4-1.78-4-4 0-2.2 1.8-4 4-4 2.22 0 4 1.8 4 4 0 2.22-1.78 4-4 4zm2-4c0 1.11-.89 2-2 2-1.11 0-2-.89-2-2 0-1.11.89-2 2-2 1.11 0 2 .89 2 2z"/></symbol><symbol id="icon-facebook" viewBox="0 0 512 512"><rect width="512" height="512" rx="15%" fill="#1877f2"/><path d="M355.6 330l11.4-74h-71v-48c0-20.2 9.9-40 41.7-40H370v-63s-29.3-5-57.3-5c-58.5 0-96.7 35.4-96.7 99.6V256h-65v74h65v182h80V330h59.6z" fill="#fff"/></symbol><symbol id="icon-field-shirt-in" viewBox="0 0 17 20"><g clip-path="url(#clip0)"><path fill="#fff" d="M17 0v20H0V0z"/><path d="M17 0v20H0V0h17z" fill="#57A455"/><path d="M12 18.5h.5v-3h-8v3H12zM12 4.5h.5v-3h-8v3H12z" stroke="#99C297"/><path d="M15 18.5h.5v-17h-14v17H15z" stroke="#99C297"/><path d="M9.106 11a.187.187 0 00-.094.03L7.1 12.228a.226.226 0 00-.073.295l.651 1.226c.055.104.177.139.272.08l1-.628v4.581c0 .12.089.217.2.217h3.691c.11 0 .2-.097.2-.217v-4.587l1.009.633c.095.06.216.025.272-.079l.651-1.226a.226.226 0 00-.073-.295l-1.912-1.2a.186.186 0 00-.123-.027.191.191 0 00-.024-.002h-1.058c-.015.136-.36.246-.783.246-.423 0-.768-.11-.783-.246H9.149a.2.2 0 00-.019.001.189.189 0 00-.024 0V11z" fill="#fff"/><path fill-rule="evenodd" clip-rule="evenodd" d="M9.8 6.9H15V4.1H9.8V2L2 5.5 9.8 9V6.9z" fill="#fff"/></g></symbol><symbol id="icon-field-shirt" viewBox="0 0 17 20"><g clip-path="url(#clip0)"><path fill="#fff" d="M17 0v20H0V0z"/><path d="M17 0v20H0V0h17z" fill="#57A455"/><path d="M12 18.5h.5v-3h-8v3H12zM12 4.5h.5v-3h-8v3H12z" stroke="#99C297"/><path d="M15 18.5h.5v-17h-14v17H15z" stroke="#99C297"/><path d="M5.423 8a.312.312 0 00-.154.046L2.162 9.93a.348.348 0 00-.118.464l1.058 1.926c.09.164.287.219.442.125l1.624-.985v7.199c0 .188.145.34.324.34h6c.179 0 .323-.152.323-.34v-7.21l1.641.996a.314.314 0 00.442-.124l1.058-1.927a.348.348 0 00-.118-.464l-3.107-1.885a.31.31 0 00-.2-.043.31.31 0 00-.04-.003H9.774c-.025.214-.586.386-1.273.386-.687 0-1.248-.172-1.273-.386H5.492l-.03.002A.302.302 0 005.421 8z" fill="#fff"/></g></symbol><symbol id="icon-field" viewBox="0 0 17 20"><g clip-path="url(#clip0)"><path fill="#fff" d="M17 0v20H0V0z"/><path d="M17 0v20H0V0h17z" fill="#57A455"/><path d="M12 18.5h.5v-3h-8v3H12zM12 4.5h.5v-3h-8v3H12z" stroke="#99C297"/><path d="M15 18.5h.5v-17h-14v17H15z" stroke="#99C297"/></g></symbol><symbol id="icon-instagram" viewBox="0 0 512 512"><rect width="512" height="512" rx="15%" fill="#d43377"/><g fill="none" stroke="#fff" stroke-width="29"><rect height="296" rx="78" width="296" x="108" y="108"/><circle cx="256" cy="256" r="69"/></g><circle cx="343" cy="169" fill="#fff" r="19"/></symbol><symbol id="icon-linkedin" viewBox="0 0 512 512"><rect width="512" height="512" rx="15%" fill="#0077b5"/><circle cx="142" cy="138" r="37"/><path stroke="#fff" stroke-width="66" d="M244 194v198M142 194v198"/><path d="M276 282c0-20 13-40 36-40 24 0 33 18 33 45v105h66V279c0-61-32-89-76-89-34 0-51 19-59 32"/></symbol><symbol id="icon-location" viewBox="0 0 12 16"><path fill-rule="evenodd" d="M6 0C2.69 0 0 2.5 0 5.5 0 10.02 6 16 6 16s6-5.98 6-10.5C12 2.5 9.31 0 6 0zm0 14.55C4.14 12.52 1 8.44 1 5.5 1 3.02 3.25 1 6 1c1.34 0 2.61.48 3.56 1.36.92.86 1.44 1.97 1.44 3.14 0 2.94-3.14 7.02-5 9.05zM8 5.5c0 1.11-.89 2-2 2-1.11 0-2-.89-2-2 0-1.11.89-2 2-2 1.11 0 2 .89 2 2z"/></symbol><symbol id="icon-plus-circle" viewBox="0 0 24 24"><path d="M12.75 7.75a.75.75 0 00-1.5 0v3.5h-3.5a.75.75 0 000 1.5h3.5v3.5a.75.75 0 001.5 0v-3.5h3.5a.75.75 0 000-1.5h-3.5v-3.5z"/><path fill-rule="evenodd" d="M12 1C5.925 1 1 5.925 1 12s4.925 11 11 11 11-4.925 11-11S18.075 1 12 1zM2.5 12a9.5 9.5 0 1119 0 9.5 9.5 0 01-19 0z"/></symbol><symbol id="icon-question" viewBox="0 0 24 24"><path d="M10.97 8.265a1.45 1.45 0 00-.487.57.75.75 0 01-1.341-.67c.2-.402.513-.826.997-1.148C10.627 6.69 11.244 6.5 12 6.5c.658 0 1.369.195 1.934.619a2.45 2.45 0 011.004 2.006c0 1.033-.513 1.72-1.027 2.215-.19.183-.399.358-.579.508l-.147.123a4.329 4.329 0 00-.435.409v1.37a.75.75 0 11-1.5 0v-1.473c0-.237.067-.504.247-.736.22-.28.486-.517.718-.714l.183-.153.001-.001c.172-.143.324-.27.47-.412.368-.355.569-.676.569-1.136a.953.953 0 00-.404-.806C12.766 8.118 12.384 8 12 8c-.494 0-.814.121-1.03.265zM13 17a1 1 0 11-2 0 1 1 0 012 0z"/><path fill-rule="evenodd" d="M12 1C5.925 1 1 5.925 1 12s4.925 11 11 11 11-4.925 11-11S18.075 1 12 1zM2.5 12a9.5 9.5 0 1119 0 9.5 9.5 0 01-19 0z"/></symbol><symbol id="icon-stadium" viewBox="0 0 23 14"><path d="M1.725 0C.774 0 0 .725 0 1.615v10.77C0 13.275.774 14 1.725 14h19.55c.951 0 1.725-.725 1.725-1.615V1.615C23 .725 22.226 0 21.275 0H1.725zm9.2 9.638c-1.31-.25-2.3-1.338-2.3-2.638 0-1.3.99-2.388 2.3-2.638v5.276zm1.15-5.276c1.31.25 2.3 1.338 2.3 2.638 0 1.3-.99 2.388-2.3 2.638V4.362zM1.15 4.308h2.3v5.384h-2.3V4.308zm0 8.077v-1.616h2.875c.318 0 .575-.24.575-.538V3.769c0-.297-.257-.538-.575-.538H1.15V1.615c0-.297.258-.538.575-.538h9.2V3.27c-1.948.262-3.45 1.835-3.45 3.73s1.502 3.468 3.45 3.73v2.193h-9.2c-.317 0-.575-.242-.575-.538zm20.7-2.693h-2.3V4.308h2.3v5.384zm0-8.077v1.616h-2.875c-.318 0-.575.24-.575.538v6.462c0 .297.258.538.575.538h2.875v1.616c0 .296-.258.538-.575.538h-9.2V10.73c1.948-.262 3.45-1.835 3.45-3.73s-1.502-3.468-3.45-3.73V1.077h9.2c.317 0 .575.241.575.538z" fill="#B7B7B7"/></symbol><symbol id="icon-substitute" viewBox="0 0 10 10"><path fill-rule="evenodd" clip-rule="evenodd" d="M3.5 4V0h-2v4H0l2.5 6L5 4H3.5z" fill="#F44336"/><path fill-rule="evenodd" clip-rule="evenodd" d="M6.5 6v4h2V6H10L7.5 0 5 6h1.5z" fill="#439328"/></symbol><symbol id="icon-tiktok" viewBox="0 0 512 512"><rect rx="15%" height="512" width="512" fill="#fff"/><path fill="#ff004f" d="M237 215a117 117 0 10100.6 115.4v-128a150 150 0 0088 28v-63a88 88 0 01-88-88H274V331a53.5 53.5 0 11-37-51z"/><path d="M219 200a117 117 0 10100.6 115.4v-128a150 150 0 0088 28v-63a88 88 0 01-88-88H256V316a53.5 53.5 0 11-37-51z" fill="#00f2ea"/></symbol><symbol id="icon-twitter" viewBox="0 0 512 512"><rect width="512" height="512" rx="15%" fill="#1da1f3"/><path fill="#fff" d="M437 152a72 72 0 01-40 12 72 72 0 0032-40 72 72 0 01-45 17 72 72 0 00-122 65 200 200 0 01-145-74 72 72 0 0022 94 72 72 0 01-32-7 72 72 0 0056 69 72 72 0 01-32 1 72 72 0 0067 50 200 200 0 01-105 29 200 200 0 00309-179 200 200 0 0035-37"/></symbol><symbol id="icon-vk" viewBox="0 0 512 512"><rect width="512" height="512" rx="15%" fill="#5281b8"/><path fill="#fff" d="M274 363c5-1 14-3 14-15 0 0-1-30 13-34s32 29 51 42c14 9 25 8 25 8l51-1s26-2 14-23c-1-2-9-15-39-42-31-30-26-25 11-76 23-31 33-50 30-57-4-7-20-6-20-6h-57c-6 0-9 1-12 6 0 0-9 25-21 45-25 43-35 45-40 42-9-5-7-24-7-37 0-45 7-61-13-65-13-2-59-4-73 3-7 4-11 11-8 12 3 0 12 1 17 7 8 13 9 75-2 81-15 11-53-62-62-86-2-6-5-7-12-9H79c-6 0-15 1-11 13 27 56 83 193 184 192z"/></symbol><symbol id="icon-watch" viewBox="0 0 12 16"><path fill-rule="evenodd" d="M6 8h2v1H5V5h1v3zm6 0c0 2.22-1.2 4.16-3 5.19V15c0 .55-.45 1-1 1H4c-.55 0-1-.45-1-1v-1.81C1.2 12.16 0 10.22 0 8s1.2-4.16 3-5.19V1c0-.55.45-1 1-1h4c.55 0 1 .45 1 1v1.81c1.8 1.03 3 2.97 3 5.19zm-1 0c0-2.77-2.23-5-5-5S1 5.23 1 8s2.23 5 5 5 5-2.23 5-5z"/></symbol><symbol id="icon-whistle" viewBox="0 0 64.002 64.002"><path d="M63.002 22.988H23.938c-.108 0-.207.03-.305.061-6.527.394-12.219 3.902-15.596 9.073a5.007 5.007 0 00-1.069-.642 4.98 4.98 0 00-6.55 2.569 4.942 4.942 0 00-.071 3.807A4.94 4.94 0 002.989 40.6c.598.26 1.241.39 1.888.404a20.343 20.343 0 00-.105 2.061c0 11.07 9.006 20.077 20.077 20.077 11.07 0 20.077-9.006 20.077-20.077 0-2.961-.653-5.881-1.901-8.539h19.979a1 1 0 001-1v-9.538c-.002-.552-.45-1-1.002-1zm-35.064 2v4.652c0 .164-.22.348-.515.348h-1.97c-.294 0-.515-.184-.515-.348v-4.652h3zM4.759 39.006a3.002 3.002 0 01-.973-.24 2.953 2.953 0 01-1.578-1.64 2.957 2.957 0 01.043-2.277 2.98 2.98 0 013.915-1.536c.31.136.593.322.838.55l-.184.422a20.295 20.295 0 00-.704 1.612l-1.357 3.109zm35.749-4.979a18.073 18.073 0 012.417 9.038c0 9.967-8.109 18.077-18.077 18.077-9.968 0-18.077-8.109-18.077-18.077 0-2.252.433-4.4 1.188-6.391l.702-1.608c2.689-5.418 8.001-9.312 14.276-9.974v4.548c0 1.295 1.128 2.348 2.515 2.348h1.97c1.387 0 2.515-1.053 2.515-2.348v-4.652h25.295v7.538H41.373a1 1 0 00-.865 1.501zm21.494-1.501h-4.769v-7.538h4.769v7.538zM19.247 18.312a1 1 0 101.664-1.11l-6.359-9.539a1 1 0 10-1.664 1.11l6.359 9.539zM32.796 18.757a1 1 0 00.833-.445l6.359-9.539a1 1 0 00-1.664-1.11l-6.359 9.539a1.001 1.001 0 00.831 1.555zM26.438 15.578a1 1 0 001-1V1.86a1 1 0 00-2 0v12.718a1 1 0 001 1z"/><path d="M17.641 34.746c-2.86.753-5.004 3.271-5.594 6.573-.65 3.634.762 7.164 3.686 9.213a.999.999 0 101.148-1.638c-2.723-1.909-3.265-4.983-2.864-7.224.452-2.526 2.036-4.438 4.134-4.99a1.001 1.001 0 00-.51-1.934z"/></symbol><symbol id="icon-world-flag" viewBox="0 0 50 30"><g clip-path="url(#clip0_123_2)"><path fill="#F1F1F1" d="M0 0h50v30H0z"/><g clip-path="url(#clip1_123_2)"><path d="M25 28c7.18 0 13-5.82 13-13S32.18 2 25 2 12 7.82 12 15s5.82 13 13 13z" fill="#86B6EE"/><path d="M13.85 16.74c.257.012.48-.305.74-1.105.165-.5.641-.831 1.168-.812 0 0 .469.609.584 3.02.122 2.585 1.033 1.666 1.265 2.707.412 1.855 1.157 2.146 1.859 2.79.702.642 1.381-.875 1.86-2.79.477-1.916 1.023-1.15 1.859-1.86.835-.71.668-1.371 1.86-1.859 1.19-.488.904.035.93-.93.015-.631.116-1.253.312-1.396.54-.393.457-.482.617-1.394.16-.91-2.2-1.892-1.86-2.789a2.575 2.575 0 000-1.86s-1.056-.51-1.859 1.86c-.44 1.293-.778-.578-.93-.93-.152-.351 0-1.86 0-1.86-1.308-.475-.657.477-1.86 0-1.2-.475-1.573-.448-.929-1.859 0 0 .35-1.478-.61-2.13a12.995 12.995 0 00-6.852 11.295c.522.794 1.328 1.88 1.845 1.903zM33.72 5.36c.15.535.389 1.38.623 2.173.381 1.286.023 2.153 0 2.79-.023.635.957 2.86.93 2.788.337.233.586.572.708.962.048.79 1.165 1.04 1.997 1.666A12.966 12.966 0 0033.72 5.36zM26.905 5.673c1.753.293 2.716 1.013 3.623 1.104.805.081.02-1.146-.681-2.06a2.75 2.75 0 01-.443-1.95 12.947 12.947 0 00-3.782-.751c.452.555 1.105 1.195 1.194 1.496.129.438-1.156 1.953.089 2.16zM37.332 19.113c-.491-.596-1.61-1.84-2.06-1.352-.605.657-.04 2.782-.929 2.789-.89.007-2.208.894-2.9 2.304-.673 1.37-2.957.835-2.795 4.623a13.025 13.025 0 008.684-8.364z" fill="#666"/></g><path stroke="#CFCFCF" d="M0 .5h50M0 29.5h50M.5 1v28M49.5 1v28"/></g></symbol><symbol id="icon-x-circle" viewBox="0 0 24 24"><path d="M9.036 7.976a.75.75 0 00-1.06 1.06L10.939 12l-2.963 2.963a.75.75 0 101.06 1.06L12 13.06l2.963 2.964a.75.75 0 001.061-1.06L13.061 12l2.963-2.964a.75.75 0 10-1.06-1.06L12 10.939 9.036 7.976z"/><path fill-rule="evenodd" d="M12 1C5.925 1 1 5.925 1 12s4.925 11 11 11 11-4.925 11-11S18.075 1 12 1zM2.5 12a9.5 9.5 0 1119 0 9.5 9.5 0 01-19 0z"/></symbol><symbol id="icon-youtube" viewBox="0 0 512 512"><rect width="512" height="512" fill="#ed1d24" rx="15%"/><path d="M427 169c-4-15-17-27-32-31-34-9-239-10-278 0-15 4-28 16-32 31-9 38-10 135 0 174 4 15 17 27 32 31 36 10 241 10 278 0 15-4 28-16 32-31 9-36 9-137 0-174" fill="#fff"/><path fill="#ed1d24" d="M220 203v106l93-53"/></symbol></svg>